<?xml version="1.0" encoding="iso-8859-1"?><!DOCTYPE svg PUBLIC "-//W3C//DTD SVG 1.1//EN" "http://www.w3.org/Graphics/SVG/1.1/DTD/svg11.dtd"><svg viewBox="0 0 512 512" xmlns="http://www.w3.org/2000/svg" xmlns:xlink="http://www.w3.org/1999/xlink"><style>:root>svg{display:none}:root>svg:target{display:block}</style><svg viewBox="0 0 310.05 310.05" id="001-pinterest" xmlns="http://www.w3.org/2000/svg"><path d="M245.265 31.772C223.923 11.284 194.388 0 162.101 0c-49.32 0-79.654 20.217-96.416 37.176-20.658 20.9-32.504 48.651-32.504 76.139 0 34.513 14.436 61.003 38.611 70.858 1.623.665 3.256 1 4.857 1 5.1 0 9.141-3.337 10.541-8.69.816-3.071 2.707-10.647 3.529-13.936 1.76-6.495.338-9.619-3.5-14.142-6.992-8.273-10.248-18.056-10.248-30.788 0-37.818 28.16-78.011 80.352-78.011 41.412 0 67.137 23.537 67.137 61.425 0 23.909-5.15 46.051-14.504 62.35-6.5 11.325-17.93 24.825-35.477 24.825-7.588 0-14.404-3.117-18.705-8.551-4.063-5.137-5.402-11.773-3.768-18.689 1.846-7.814 4.363-15.965 6.799-23.845 4.443-14.392 8.643-27.985 8.643-38.83 0-18.55-11.404-31.014-28.375-31.014-21.568 0-38.465 21.906-38.465 49.871 0 13.715 3.645 23.973 5.295 27.912-2.717 11.512-18.865 79.953-21.928 92.859-1.771 7.534-12.44 67.039 5.219 71.784 19.841 5.331 37.576-52.623 39.381-59.172 1.463-5.326 6.582-25.465 9.719-37.845 9.578 9.226 25 15.463 40.006 15.463 28.289 0 53.73-12.73 71.637-35.843 17.367-22.418 26.932-53.664 26.932-87.978 0-26.826-11.52-53.272-31.604-72.556z"/></svg><svg viewBox="0 0 96.124 96.123" id="002-facebook-logo" xmlns="http://www.w3.org/2000/svg"><path d="M72.089.02L59.624 0C45.62 0 36.57 9.285 36.57 23.656v10.907H24.037a1.96 1.96 0 00-1.96 1.961v15.803a1.96 1.96 0 001.96 1.96H36.57v39.876a1.96 1.96 0 001.96 1.96h16.352a1.96 1.96 0 001.96-1.96V54.287h14.654a1.96 1.96 0 001.96-1.96l.006-15.803a1.963 1.963 0 00-1.961-1.961H56.842v-9.246c0-4.444 1.059-6.7 6.848-6.7l8.397-.003a1.96 1.96 0 001.959-1.96V1.98A1.96 1.96 0 0072.089.02z"/></svg><svg viewBox="0 0 310 310" id="003-tumblr" xmlns="http://www.w3.org/2000/svg"><path d="M249.775 236.928a4.997 4.997 0 00-5.119.221c-14.15 9.295-28.469 14.007-42.557 14.007-7.678 0-14.285-1.725-20.236-5.297-4.023-2.366-6.688-5.399-8.139-9.257-1.107-2.978-2.43-10.9-2.43-31.739v-71.945h66.168a5 5 0 005-5v-47.1a5 5 0 00-5-5h-66.168V5a5 5 0 00-5-5H123.61a4.999 4.999 0 00-4.961 4.386c-1.836 14.831-5.201 27.143-10.01 36.601-4.744 9.381-11.141 17.526-19.018 24.216-7.842 6.687-17.451 11.899-28.563 15.491a5 5 0 00-3.463 4.758v42.466a5 5 0 005 5h28.168v100.237c0 14.492 1.523 25.36 4.656 33.218 3.158 7.955 8.83 15.496 16.863 22.418 7.922 6.801 17.568 12.104 28.67 15.758 10.971 3.618 23.73 5.452 37.922 5.452 12.416 0 24.141-1.269 34.85-3.772 10.73-2.514 22.779-6.91 35.811-13.065a4.999 4.999 0 002.865-4.521v-47.314a4.99 4.99 0 00-2.625-4.401z"/></svg><svg viewBox="0 -47 512.002 512" id="004-twitter" xmlns="http://www.w3.org/2000/svg"><path d="M191.012 419.043c-22.14 0-44.93-1.793-67.856-5.387-40.379-6.336-81.254-27.457-92.82-33.781L0 363.289l32.844-10.8c35.902-11.805 57.742-19.13 84.777-30.598-27.07-13.11-47.933-36.692-57.976-67.176l-7.641-23.195 6.266.957A113.939 113.939 0 0144 214.883c-12.934-19.645-19.781-43.649-18.324-64.219l1.437-20.246 12.121 4.695a113.316 113.316 0 01-10.98-30.777c-5.293-26.36-.863-54.363 12.476-78.852L51.29 6.102l14.12 16.96c44.66 53.649 101.227 85.473 168.363 94.79-2.742-18.903-.687-37.145 6.114-53.497 7.918-19.039 22.004-35.183 40.722-46.69 20.79-12.778 46-18.97 70.989-17.435 26.511 1.63 50.582 11.563 69.699 28.747 9.336-2.426 16.215-5.016 25.512-8.516 5.593-2.106 11.937-4.496 19.875-7.23l29.25-10.079-19.075 54.477a96.355 96.355 0 013.91-.254l31.235-1.414-18.461 25.23c-1.059 1.446-1.328 1.856-1.703 2.422-1.488 2.242-3.34 5.032-28.68 38.867-6.344 8.473-9.512 19.508-8.922 31.079 2.246 43.968-3.148 83.75-16.043 118.234-12.195 32.625-31.093 60.617-56.164 83.2-31.023 27.937-70.582 47.066-117.582 56.847-23.054 4.797-47.812 7.203-73.437 7.203zm0 0"/></svg><svg viewBox="0 0 300 300" id="005-instagram" xmlns="http://www.w3.org/2000/svg"><path d="M38.52.012h222.978C282.682.012 300 17.336 300 38.52v222.978c0 21.178-17.318 38.49-38.502 38.49H38.52c-21.184 0-38.52-17.313-38.52-38.49V38.52C0 17.336 17.336.012 38.52.012zm180.026 33.317c-7.438 0-13.505 6.091-13.505 13.525v32.314c0 7.437 6.067 13.514 13.505 13.514h33.903c7.426 0 13.506-6.077 13.506-13.514V46.854c0-7.434-6.08-13.525-13.506-13.525h-33.903zm47.538 93.539h-26.396a87.715 87.715 0 013.86 25.759c0 49.882-41.766 90.34-93.266 90.34-51.487 0-93.254-40.458-93.254-90.34 0-8.963 1.37-17.584 3.861-25.759H33.35V253.6c0 6.563 5.359 11.902 11.916 11.902h208.907c6.563 0 11.911-5.339 11.911-11.902V126.868zm-115.801-35.89c-33.26 0-60.24 26.128-60.24 58.388 0 32.227 26.98 58.375 60.24 58.375 33.278 0 60.259-26.148 60.259-58.375 0-32.261-26.981-58.388-60.259-58.388z"/></svg><svg version="1.1" id="noemi-logo" x="0" y="0" viewBox="0 0 81.6 18.5" xml:space="preserve" xmlns="http://www.w3.org/2000/svg"><style>.fst0{fill:#b59f5b}.fst1{fill:#fff}</style><path class="fst0" d="M12.9 3.6v14.9h-.1l-10-9.1.1 8.5H0V3h.1l10 9.2-.1-8.6h2.9z"/><path class="fst1" d="M20.2 7.1c.7-1.1 1.5-2 2.7-2.7 1.1-.7 2.3-1 3.7-1s2.5.3 3.7 1c1.1.7 2 1.6 2.7 2.7s1 2.3 1 3.6-.3 2.5-1 3.7-1.6 2-2.7 2.7-2.3 1-3.7 1c-1.3 0-2.5-.3-3.7-1-1.1-.7-2-1.5-2.7-2.7s-1-2.3-1-3.7c.1-1.2.4-2.5 1-3.6zm2.6 6c.4.7.9 1.3 1.6 1.7s1.4.6 2.3.6c.8 0 1.5-.2 2.2-.6.7-.4 1.2-1 1.6-1.7s.6-1.5.6-2.3c0-.9-.2-1.6-.6-2.3s-.9-1.3-1.6-1.7-1.4-.6-2.2-.6-1.7.1-2.3.6-1.2 1-1.6 1.7-.6 1.5-.6 2.3c0 .8.2 1.6.6 2.3zM50 3.6v2.7h-7v3.1h6.2v2.7H43v3.1h7.2v2.7h-9.9V3.6H50zm-4.1-1h-1.7L45.8 0h3l-2.9 2.6zM71.5 3v14.9h-2.8v-6.8L64 17.7l-4.5-6.2v6.4h-2.7V3L64 13.3 71.5 3zM81.6 3.6v14.3h-2.8V3.6h2.8z"/></svg><svg fill="none" viewBox="0 0 512 512" id="search" xmlns="http://www.w3.org/2000/svg"><g clip-path="url(#gclip0)"><path fill="#fff" stroke="#B59F5B" d="M373.403 339.292l-.29.344.312.324 121.857 126.737c10.117 10.524 9.782 27.302-.733 37.42l.347.36-.347-.36c-4.948 4.763-11.466 7.383-18.338 7.383-7.261 0-14.034-2.884-19.072-8.116L334.357 375.686l-.297-.309-.351.246c-34.78 24.442-75.457 37.317-118.145 37.317-113.708 0-206.22-92.513-206.22-206.22C9.344 93.012 101.856.5 215.564.5c113.707 0 206.22 92.512 206.22 206.22 0 48.668-17.125 95.416-48.381 132.572zm-4.546-132.572c0-84.528-68.765-153.293-153.293-153.293S62.271 122.192 62.271 206.72s68.765 153.293 153.293 153.293 153.293-68.765 153.293-153.293z"/></g><defs><clipPath id="gclip0"><path fill="#fff" d="M0 0h512v512H0z"/></clipPath></defs></svg></svg>